<?xml version="1.0" encoding="utf-8"?>
<!-- Generator: Adobe Illustrator 22.0.1, SVG Export Plug-In . SVG Version: 6.00 Build 0)  -->
<svg version="1.1" id="Layer_3" xmlns="http://www.w3.org/2000/svg" xmlns:xlink="http://www.w3.org/1999/xlink" x="0px" y="0px"
	 viewBox="0 0 64 64" style="enable-background:new 0 0 64 64;" xml:space="preserve">
<style type="text/css">
	.st0{fill:#FAF5F5;}
	.st1{fill:#63312D;}
	.st2{fill:#F9A287;}
	.st3{fill:#FCB7A4;}
	.st4{fill:#DB785A;}
	.st5{fill:#E0E0E0;}
	.st6{fill:#84DBFF;}
	.st7{fill:#EFC36A;}
	.st8{fill:#F9DD9D;}
	.st9{fill:#EEC26A;}
	.st10{fill:#A9EBFF;}
	.st11{fill:#52BADB;}
	.st12{fill:#FFFFFF;}
	.st13{fill:#F0EEEE;}
	.st14{fill:#BDBDBD;}
	.st15{fill:#E3DFDF;}
	.st16{fill:#FFE8BB;}
	.st17{fill:#FFF2D2;}
	.st18{fill:#D8C18F;}
	.st19{fill:#EAD194;}
	.st20{fill:#BFA064;}
	.st21{fill:#CCCCCC;}
	.st22{fill:#C5F1FF;}
	.st23{fill:#D3A553;}
	.st24{fill:#67C7E5;}
</style>
<g>
	<path class="st6" d="M53.357,31.198l0.017-9.117l-6.407-1.444c-0.262-0.772-0.557-1.518-0.913-2.241l3.517-5.531l-6.441-6.453
		L37.592,9.92c-0.722-0.357-1.467-0.656-2.238-0.919l-1.432-6.408h-9.117l-1.432,6.408c-0.729,0.249-1.437,0.523-2.122,0.856
		l-5.508-3.545l-6.488,6.406l3.48,5.561c-0.361,0.72-0.669,1.46-0.937,2.23l-6.413,1.397l-0.05,9.117l6.403,1.468
		c0.259,0.773,0.548,1.522,0.901,2.246l-3.535,5.515l6.417,6.476l5.554-3.489c0.721,0.36,1.462,0.665,2.233,0.93l1.409,6.412
		l9.117,0.033l1.456-6.405c0.772-0.26,1.52-0.552,2.244-0.907l5.523,3.526l6.464-6.429l-3.499-5.546
		c0.359-0.722,0.66-1.465,0.925-2.235L53.357,31.198z"/>
	<g>
		<g>
			<g>
				<path class="st10" d="M48.388,21.883l4.984,1.124l0.002-0.926l-5.359-1.208C48.147,21.205,48.272,21.541,48.388,21.883z"/>
			</g>
			<g>
				<path class="st10" d="M36.775,10.248c0.771,0.263,1.516,0.562,2.238,0.919l5.43-3.439L43.13,6.412L37.592,9.92
					c-0.325-0.161-0.655-0.306-0.99-0.445L36.775,10.248z"/>
			</g>
			<g>
				<path class="st10" d="M6.806,23.153l6.413-1.397c0.267-0.77,0.575-1.51,0.937-2.23l-3.48-5.561l6.488-6.406l5.508,3.545
					c0.686-0.333,1.393-0.607,2.122-0.856l1.432-6.408H34.2l-0.279-1.247h-9.117l-1.432,6.408c-0.729,0.249-1.437,0.523-2.122,0.856
					l-5.508-3.545l-6.488,6.406l3.48,5.561c-0.361,0.72-0.669,1.46-0.937,2.23l-6.413,1.397l-0.05,9.117l1.426,0.327L6.806,23.153z"
					/>
			</g>
			<g>
				<path class="st10" d="M10.526,41.5l3.535-5.515c-0.354-0.724-0.642-1.473-0.901-2.246l-1.056-0.242
					c0.164,0.421,0.338,0.836,0.536,1.242l-3.535,5.515l6.417,6.476l0.115-0.072L10.526,41.5z"/>
			</g>
		</g>
	</g>
	<path class="st1" d="M33.834,51.115c-0.001,0-0.001,0-0.002,0l-9.117-0.033c-0.234-0.001-0.437-0.164-0.486-0.393l-1.349-6.14
		c-0.626-0.225-1.211-0.468-1.774-0.738l-5.318,3.342c-0.198,0.122-0.457,0.094-0.621-0.072l-6.417-6.477
		c-0.164-0.166-0.191-0.425-0.065-0.621l3.385-5.281c-0.25-0.538-0.485-1.127-0.714-1.786l-6.131-1.405
		c-0.229-0.053-0.39-0.256-0.389-0.49l0.05-9.117c0.001-0.234,0.165-0.436,0.394-0.485l6.141-1.338
		c0.224-0.616,0.468-1.2,0.744-1.771l-3.332-5.324c-0.124-0.199-0.094-0.457,0.072-0.621l6.487-6.406
		c0.167-0.166,0.426-0.191,0.622-0.065l5.274,3.395c0.501-0.231,1.038-0.447,1.658-0.666l1.371-6.137
		c0.052-0.229,0.254-0.391,0.488-0.391h9.116c0.234,0,0.437,0.162,0.488,0.391L35.78,8.62c0.64,0.227,1.227,0.467,1.779,0.729
		l5.304-3.359c0.196-0.123,0.457-0.098,0.621,0.069l6.44,6.453c0.166,0.166,0.194,0.424,0.068,0.622l-3.367,5.296
		c0.257,0.547,0.495,1.134,0.723,1.78l6.136,1.384c0.228,0.051,0.39,0.254,0.39,0.488l-0.017,9.117c0,0.234-0.163,0.437-0.392,0.487
		l-6.139,1.36c-0.228,0.637-0.469,1.223-0.733,1.776l3.351,5.311c0.125,0.198,0.096,0.456-0.07,0.621l-6.465,6.429
		c-0.166,0.165-0.424,0.193-0.622,0.067L37.5,43.874c-0.542,0.254-1.131,0.49-1.784,0.719l-1.395,6.133
		C34.27,50.954,34.067,51.115,33.834,51.115z M25.119,50.083l8.316,0.031l1.367-6.015c0.038-0.171,0.163-0.308,0.328-0.363
		c0.826-0.278,1.54-0.566,2.183-0.883c0.158-0.077,0.343-0.065,0.49,0.027l5.185,3.312l5.896-5.864L45.6,35.121
		c-0.093-0.147-0.103-0.333-0.024-0.489c0.33-0.664,0.625-1.376,0.899-2.175c0.057-0.165,0.194-0.288,0.364-0.326l6.02-1.334
		l0.015-8.316l-6.017-1.356c-0.17-0.038-0.308-0.162-0.363-0.327c-0.276-0.815-0.566-1.529-0.887-2.181
		c-0.077-0.156-0.067-0.342,0.026-0.489l3.302-5.192L43.06,7.049l-5.2,3.294c-0.148,0.092-0.333,0.101-0.489,0.025
		c-0.662-0.328-1.374-0.62-2.178-0.894c-0.165-0.057-0.289-0.194-0.327-0.364l-1.345-6.018h-8.315L23.86,9.11
		c-0.038,0.17-0.162,0.308-0.327,0.364c-0.804,0.274-1.46,0.539-2.064,0.833c-0.157,0.076-0.343,0.065-0.489-0.029L15.809,6.95
		l-5.917,5.843l3.267,5.221c0.093,0.148,0.102,0.334,0.023,0.489c-0.349,0.694-0.646,1.404-0.911,2.17
		c-0.058,0.165-0.196,0.288-0.366,0.325L5.883,22.31l-0.046,8.316l6.013,1.378c0.17,0.039,0.308,0.163,0.363,0.329
		c0.279,0.834,0.565,1.55,0.876,2.187c0.077,0.156,0.065,0.342-0.028,0.488l-3.319,5.178l5.854,5.907l5.215-3.276
		c0.147-0.093,0.334-0.101,0.489-0.023c0.68,0.34,1.391,0.636,2.173,0.905c0.165,0.057,0.288,0.195,0.325,0.365L25.119,50.083z"/>
	<g>
		<path class="st11" d="M21.25,9.857c0.686-0.333,1.393-0.607,2.122-0.856l0.231-1.035l-2.57-1.654l-5.291,0L21.25,9.857z"/>
		<path class="st11" d="M37.592,9.92l2.854-1.808l-1.234-5.519h-5.291l1.432,6.408C36.125,9.264,36.87,9.563,37.592,9.92z"/>
		<path class="st11" d="M58.649,31.198l0.017-9.117l-6.407-1.444c-0.262-0.772-0.557-1.518-0.913-2.241l3.517-5.531l-6.441-6.453
			l-5.291,0l6.441,6.453l-3.517,5.531c0.356,0.723,0.651,1.469,0.913,2.241l6.407,1.444l-0.017,9.117l-6.41,1.421
			c-0.265,0.771-0.566,1.514-0.925,2.235l3.499,5.546l-6.464,6.429l5.291,0l6.464-6.429l-3.499-5.546
			c0.359-0.722,0.66-1.465,0.925-2.235L58.649,31.198z"/>
		<path class="st11" d="M23.308,44.171c-0.77-0.266-1.512-0.57-2.233-0.93l-5.554,3.489l5.291,0l2.686-1.688L23.308,44.171z"/>
		<path class="st11" d="M37.534,43.303c-0.723,0.355-1.471,0.647-2.244,0.907l-1.452,6.386l5.287,0.019l1.25-5.498L37.534,43.303z"
			/>
	</g>
	<g>
		<path class="st1" d="M21.249,10.357c-0.095,0-0.188-0.026-0.271-0.079l-5.507-3.545c-0.187-0.12-0.271-0.35-0.209-0.562
			c0.063-0.213,0.258-0.359,0.479-0.359h5.291c0.096,0,0.189,0.027,0.271,0.079l2.57,1.654c0.177,0.114,0.264,0.325,0.218,0.53
			L23.86,9.11c-0.038,0.17-0.162,0.308-0.327,0.364c-0.803,0.273-1.46,0.538-2.066,0.833C21.398,10.341,21.323,10.357,21.249,10.357
			z M17.442,6.813l3.844,2.475c0.502-0.232,1.04-0.449,1.659-0.667l0.094-0.422l-2.153-1.386H17.442z"/>
		<path class="st1" d="M37.592,10.42c-0.076,0-0.151-0.018-0.222-0.052c-0.662-0.328-1.374-0.62-2.178-0.894
			c-0.165-0.057-0.289-0.194-0.327-0.364l-1.433-6.408c-0.033-0.148,0.003-0.304,0.098-0.422c0.096-0.118,0.239-0.188,0.391-0.188
			h5.292c0.234,0,0.437,0.162,0.488,0.391l1.233,5.52c0.046,0.206-0.043,0.419-0.221,0.532l-2.854,1.808
			C37.778,10.394,37.685,10.42,37.592,10.42z M35.78,8.62c0.64,0.227,1.227,0.467,1.779,0.729l2.322-1.471l-1.069-4.785h-4.268
			L35.78,8.62z"/>
		<path class="st1" d="M48.349,47.329h-5.292c-0.202,0-0.385-0.122-0.462-0.31c-0.077-0.187-0.034-0.402,0.109-0.545l6.181-6.146
			L45.6,35.121c-0.093-0.147-0.103-0.333-0.024-0.489c0.33-0.664,0.625-1.376,0.899-2.175c0.057-0.165,0.194-0.288,0.364-0.326
			l6.02-1.334l0.015-8.316l-6.017-1.356c-0.17-0.038-0.308-0.162-0.363-0.327c-0.276-0.815-0.566-1.529-0.887-2.181
			c-0.077-0.156-0.067-0.342,0.026-0.489l3.302-5.192l-6.157-6.169c-0.144-0.144-0.186-0.358-0.108-0.545s0.26-0.309,0.462-0.309
			h5.291c0.133,0,0.26,0.053,0.354,0.146l6.44,6.453c0.166,0.166,0.194,0.424,0.068,0.622l-3.367,5.295
			c0.257,0.547,0.495,1.134,0.724,1.781l6.135,1.384c0.228,0.051,0.39,0.254,0.39,0.488l-0.017,9.117
			c0,0.234-0.163,0.437-0.392,0.487l-6.138,1.36c-0.227,0.633-0.468,1.219-0.733,1.776l3.35,5.311
			c0.125,0.198,0.096,0.456-0.07,0.621l-6.464,6.429C48.607,47.276,48.48,47.329,48.349,47.329z M44.269,46.329h3.874l6.033-6.001
			l-3.284-5.207c-0.093-0.147-0.103-0.333-0.025-0.489c0.333-0.67,0.628-1.382,0.9-2.175c0.057-0.165,0.194-0.288,0.364-0.326
			l6.019-1.334l0.015-8.316l-6.016-1.356c-0.17-0.038-0.308-0.162-0.363-0.327c-0.276-0.817-0.567-1.53-0.888-2.181
			c-0.077-0.156-0.067-0.342,0.026-0.489l3.302-5.192l-6.011-6.022h-3.879l5.589,5.6c0.166,0.166,0.194,0.424,0.068,0.622
			l-3.367,5.296c0.257,0.547,0.495,1.134,0.723,1.78l6.136,1.384c0.228,0.051,0.39,0.254,0.39,0.488l-0.017,9.117
			c0,0.234-0.163,0.437-0.392,0.487l-6.139,1.36c-0.228,0.637-0.469,1.223-0.733,1.776l3.351,5.311
			c0.125,0.198,0.096,0.456-0.07,0.621L44.269,46.329z"/>
		<path class="st1" d="M20.813,47.229h-5.292c-0.223,0-0.419-0.147-0.48-0.361c-0.062-0.215,0.025-0.443,0.215-0.563l5.554-3.489
			c0.147-0.093,0.334-0.101,0.489-0.023c0.68,0.34,1.391,0.636,2.173,0.905c0.165,0.057,0.288,0.195,0.325,0.365l0.191,0.871
			c0.045,0.206-0.044,0.419-0.223,0.531l-2.687,1.688C21,47.203,20.907,47.229,20.813,47.229z M17.257,46.229h3.413l2.267-1.424
			L22.88,44.55c-0.626-0.225-1.211-0.468-1.774-0.738L17.257,46.229z"/>
		<path class="st1" d="M39.126,51.115c-0.001,0-0.001,0-0.002,0l-5.287-0.02c-0.151-0.001-0.295-0.07-0.39-0.188
			c-0.094-0.119-0.13-0.274-0.096-0.422l1.451-6.386c0.038-0.171,0.163-0.308,0.328-0.363c0.826-0.278,1.54-0.566,2.183-0.883
			c0.158-0.077,0.343-0.066,0.49,0.028l2.841,1.814c0.178,0.113,0.265,0.326,0.218,0.531l-1.249,5.498
			C39.562,50.954,39.359,51.115,39.126,51.115z M34.465,50.098l4.263,0.016l1.082-4.764l-2.311-1.476
			c-0.541,0.254-1.13,0.49-1.783,0.719L34.465,50.098z"/>
	</g>
	<rect x="49.571" y="12.365" class="st1" width="5.224" height="1"/>
	<path class="st8" d="M45.135,26.604c0-8.715-7.065-15.781-15.781-15.781s-15.78,7.065-15.78,15.781
		c0,6.573,4.02,12.202,9.734,14.576v9.436h11.87v-9.354C41.008,38.942,45.135,33.26,45.135,26.604z"/>
	<rect x="23.308" y="41.303" class="st0" width="11.87" height="9.312"/>
	<circle class="st0" cx="29.355" cy="26.604" r="9.039"/>
	<path class="st1" d="M29.354,36.143c-5.26,0-9.538-4.278-9.538-9.538s4.278-9.539,9.538-9.539s9.539,4.279,9.539,9.539
		S34.614,36.143,29.354,36.143z M29.354,18.065c-4.708,0-8.538,3.831-8.538,8.539s3.83,8.538,8.538,8.538s8.539-3.83,8.539-8.538
		S34.063,18.065,29.354,18.065z"/>
	<path class="st1" d="M35.179,51.115h-11.87c-0.276,0-0.5-0.224-0.5-0.5V41.51c-5.925-2.603-9.734-8.416-9.734-14.905
		c0-8.978,7.304-16.281,16.28-16.281s16.28,7.304,16.28,16.281c0,6.59-3.896,12.438-9.956,14.992v9.019
		C35.679,50.892,35.455,51.115,35.179,51.115z M23.809,50.115h10.87v-8.854c0-0.205,0.125-0.389,0.315-0.465
		c5.856-2.329,9.641-7.899,9.641-14.191c0-8.426-6.854-15.281-15.28-15.281s-15.28,6.855-15.28,15.281
		c0,6.195,3.7,11.735,9.426,14.113c0.187,0.078,0.309,0.26,0.309,0.462V50.115z"/>
	<rect x="49.571" y="39.715" class="st1" width="5.224" height="1"/>
	<rect x="53.187" y="30.665" class="st1" width="5.462" height="1"/>
	<rect x="53.374" y="21.578" class="st1" width="5.274" height="1"/>
	<rect x="23.5" y="46.943" class="st1" width="11.679" height="1"/>
	<rect x="23.5" y="43.886" class="st1" width="11.679" height="1"/>
	<rect x="23.5" y="40.709" class="st1" width="11.679" height="1"/>
	<rect x="25.868" y="52.448" class="st1" width="6.75" height="1"/>
	<rect x="28.743" y="53.115" class="st1" width="1" height="4.542"/>
	<path class="st1" d="M29.243,61.907c-1.206,0-2.188-0.981-2.188-2.188s0.981-2.188,2.188-2.188s2.188,0.981,2.188,2.188
		S30.449,61.907,29.243,61.907z M29.243,58.532c-0.655,0-1.188,0.532-1.188,1.188s0.532,1.188,1.188,1.188s1.188-0.532,1.188-1.188
		S29.898,58.532,29.243,58.532z"/>
</g>
</svg>
